<?xml version="1.0" encoding="utf-8"?>
<!-- Generator: Adobe Illustrator 19.0.0, SVG Export Plug-In . SVG Version: 6.00 Build 0)  -->
<svg version="1.1" id="Layer_1" xmlns="http://www.w3.org/2000/svg" xmlns:xlink="http://www.w3.org/1999/xlink" x="0px" y="0px"
	 viewBox="0 0 96 96" style="enable-background:new 0 0 96 96;" xml:space="preserve">
<style type="text/css">
	.st0{fill:#333333;}
</style>
<g id="XMLID_2_">
	<path id="XMLID_13_" class="st0" d="M48,15.5c-17.9,0-32.5,14.6-32.5,32.5c0,18,14.6,32.5,32.5,32.5C65.9,80.5,80.5,66,80.5,48
		C80.5,30.1,65.9,15.5,48,15.5z M47.8,19.4l2.9,1.2l-1.4,3.3c-1.6,0.8-3.2,1.3-4.9,1.9l-1,1.8l-0.9,0.4l-1.3-2.5l0.9-1v-1l-2.5-1.8
		l0.8-0.7l4.1-1.2L47.8,19.4z M40,19.6l0.4,0.7c-0.8,0.3-1.5,0.6-2.3,0.9l-1.2,0.3L36.4,22L35,21.8l0.3-0.4l0.5-0.2l0.9-0.5l1.1-0.1
		l0.7-0.8L40,19.6z M33.4,22.7l0.6,1l0.4-0.8l1-0.2l0.1,0.6l2.1,0.2l0.5,1.2l1.3,0.5l-1.2,0.9c-0.7-0.5-1.5-0.9-2.2-1.4L35,24.2
		c-0.5,0.3-0.9,0.7-1.4,1l-0.7,1.3h-1l0.3-1L31,26.7l-2.7,1.6l0.3,1.1l2.1,0.9l0.3,1.4l0.8-1.7l1.1-0.4l-0.1-0.8l1.3-2.1l1.5,0.8
		l-0.2,1l1.3-0.5l0.6,1.2L37.1,30l0.8,0.3l0.7,0.6l-0.3,0.7l-1.9,0.7h-1.3l-1.9,0.8h3l-1,1.5l-1.9,0.4l-0.9,1.3l-1.6,0.6l-0.7,1.9
		l-2.1,1.8L27.7,43l-1.2-1.5l-1.7-0.3l-0.3,0.8h-1.4l-1.5,1.2l-0.3,1.5l0.1,1.4l1.2,0.6l0.8-0.3l0.8-1.1h0.8
		c-0.1,0.9-0.2,1.8-0.3,2.7l1.4-0.1v1.3l0.4,1.3c0.5,0.3,1.3,0.3,1.9,0.5v-0.3l1.9-1.8l1.9,1.4l2.2-0.3l0.9,2.4l1.6,0.3l0.9,1.8
		c1.8,0.9,3.6,1.9,5.4,2.8L43,59.1l-1.4,1.9l0.2,2.6L41,65.5l-1.7,0.4L38.5,67l0.3,0.8l-1,2.7l-1.4,0.6L36,71.9l-0.8,0.9l0.3,0.6
		c0,0-0.3,0.2-0.5,0.3c-0.2,0.2-3.7-1.7-3.8-2c-0.1-0.3,0-0.3,0-0.3l0.8-3L31.1,67l0.1-2.6l-0.8-1.2l-1.9-1.8l-2-3.6l0.6-1.9
		l-0.3-0.5l0.8-1l0.8-2.4v-0.3l-0.7-0.3l-0.9,0.1l-1.5-1.1l-1-1.3l-2.3-0.6l-2.4-1.4c0,0-1-1.5-1-1.8C19.9,34.1,26,28,29,25.2
		c0.2-0.1,1.2-0.3,1.2-0.3l0.5-1.4l0.9,0.1l0.7,0.4l-0.1,1.4l0.2-0.3l0.9-0.8l-0.1-1.3L33.4,22.7L33.4,22.7z M61.7,23.6l1.4,0.5
		l2.6,0.5l-0.6,0.8h-1.5l1.5,1.5l1.1-1.3l0.3-0.6c0,0,4.2,3.8,6.6,8c2.4,4.2,3.6,9.1,3.6,10.1L76,44c-0.5-0.6-1.1-1.1-1.7-1.6
		l-1.3,0.2L72,41.2v1.7l0.9,0.7l0.8,0.8l0.8-1.1c0.2,0.4,0.4,0.9,0.6,1.3v1.3L74.2,47l-1.9,1.3L71,49.6c0.6,0,1.2-0.2,1.9-0.3v0.9
		l-1.4,3.3l-1.2,1.3l-1,2.1v3.6l0.3,1.4l-0.5,0.6L68,63.3l-1.3,1l1,1.2l-1.4,1.3l0.3,0.8L64.4,70H63l-1.3,0.8H61v-1.1l-0.3-1.9
		c-0.4-1.3-0.9-2.6-1.4-3.8c0-0.9,0-1.8,0.1-2.7l0.5-1.3l-0.8-1.5l0.1-2l-1-1.3l0.5-1.6l-0.9-1h-1.4l-0.5-0.5l-1.4,0.8l-0.7-0.6
		l-1.3,1.2c-0.9-1.1-1.9-2.2-2.9-3.2l-1.2-2.6l1-1.5l-0.5-0.7l1.2-2.8c1-1.2,2.1-2.4,3.1-3.6l1.9-0.5l2.1-0.3l1.4,0.4l2,2l0.7-0.8
		l1.1-0.3l1.9,0.7h1.4l1-0.9l0.4-0.6l-0.9-0.6l-1.7-0.1c-0.5-0.6-0.9-1.3-1.4-1.9l-0.5,0.2l-0.3,1.7l-1-1.2l-0.2-1.3l-1.2-0.8h-0.4
		l1.2,1.3l-0.4,1.1l-0.9,0.3l0.5-1.1l-0.9-0.6L58,34.9l-1.6,0.3L56,35.7l-0.9,0.7l-0.5,1.4l-1.4,0.7l-0.6-0.7h-0.7v-2.3l1.4-0.7h1.2
		l-0.3-0.9L53.3,33l1.5-0.3l0.8-0.9l0.3-0.6L55.1,32l-1.3,0.3l0.3-1.5v-1.1l-0.4-0.5v-0.7h0.6c0.3,0.7,0.7,1.3,0.9,1.9l0.8,0.8
		l0.4-0.5h1.2l-0.3-0.9l0.8-0.4v1l1.6,0.3l1.7-1.4l0.1-0.7l1.4-1c-0.5,0.1-1,0.1-1.5,0.3v-1.1l0.5-1.3h-0.5L60,26.7l-0.3,0.6
		l0.3,0.8l-0.5,1.5l-0.8-0.5l-0.8-0.8l-1.1,0.8l-0.5-2l2.1-1.4V25l1.3-0.8L61.7,23.6L61.7,23.6z M50.8,25.2l0.7,0.8l-1.4,0.9
		l-0.8-0.5l0.1-0.8l0.4,0.1L50.8,25.2z M36.2,25.5l1.1,0.5v0.9h-0.9l-1-0.8L36.2,25.5z M53.2,29.9l0.4,1.1l-0.9,0.5l-0.3-1.4
		L53.2,29.9L53.2,29.9z M37.9,32.2l1.1,0.7l-0.8,1L37.9,32.2z"/>
</g>
</svg>
